<svg xmlns="http://www.w3.org/2000/svg" viewBox="0 0 512 512" role="img" aria-labelledby="title desc">
  <title id="title">Medical team eye logo</title>
  <desc id="desc">A blue and green eye shaped logo surrounding three healthcare workers.</desc>

  <defs>
    <clipPath id="inner-circle">
      <circle cx="256" cy="292" r="101"/>
    </clipPath>
    <linearGradient id="coat-shadow" x1="214" x2="300" y1="285" y2="392" gradientUnits="userSpaceOnUse">
      <stop stop-color="#f5f8ff"/>
      <stop offset="1" stop-color="#cfd9ff"/>
    </linearGradient>
  </defs>

  <g fill="none" stroke-linecap="round" stroke-linejoin="round">
    <ellipse cx="256" cy="257" rx="238" ry="211" stroke="#bfff22" stroke-width="16"/>
    <path d="M13 277c18-104 123-183 243-183s225 79 243 183c-28 91-126 160-243 160S41 368 13 277Z" stroke="#37bf00" stroke-width="13"/>
    <path d="M32 282c18-94 114-167 224-167s206 73 224 167c-29 81-118 142-224 142S61 363 32 282Z" stroke="#0071ce" stroke-width="26"/>
    <path d="M50 304c36 94 116 157 206 157s170-63 206-157" stroke="#7d7d7d" stroke-width="3" opacity=".75"/>
    <path d="M50 208c36-67 116-107 206-107s170 40 206 107" stroke="#7d7d7d" stroke-width="3" opacity=".6"/>
  </g>

  <g clip-path="url(#inner-circle)">
    <rect x="149" y="181" width="214" height="214" fill="#0b6fc6"/>

    <g>
      <path fill="#4465bd" d="M169 207c0-13 10-20 24-20s23 8 24 21v42h-48z"/>
      <path fill="#87a5dc" d="M177 206c8-8 25-9 35 4v30h-35z"/>
      <path fill="#8d4c00" d="M171 218c11-11 41-13 47 4l-6 28h-34z"/>
      <path fill="#6d3f00" d="M214 222c10 6 11 27-2 38l-8-27z"/>
      <path fill="#f4f7ff" d="M176 228c7-9 26-9 36 1-2 18-8 27-18 27-11 0-17-10-18-28z"/>
      <path fill="#8b5a10" d="M179 249h29v22c-5 8-10 12-15 12s-9-4-14-12z"/>
      <path fill="#88c7f4" d="M154 309c5-30 18-43 34-43h10c17 0 30 13 34 43l4 79h-86z"/>
      <path fill="#314d9e" d="M162 274c3-10 9-18 18-22 4 14 10 23 13 28 4-5 11-14 16-29 9 4 16 12 20 23l-37 38z"/>
      <path fill="#32488e" d="M160 288c12 25 25 47 49 69l-2 31h-56z"/>
    </g>

    <g>
      <path fill="#84dbff" d="M300 273c5-23 18-35 39-35s33 12 39 35l16 117H282z"/>
      <path fill="#1aa9ec" d="M327 268h27v116h-47z"/>
      <path fill="#4c3a75" d="M306 230c-11 2-17 13-13 28-7 8-4 22 6 27-5 11 4 23 16 23l42-4c15 1 23-14 17-26 11-8 10-26-1-32 3-19-12-31-29-27z"/>
      <path fill="#8a5100" d="M305 214c7-15 47-16 56 1l-6 43h-43z"/>
      <path fill="#784400" d="M356 222c7 10 6 30-4 43l-11-34z"/>
      <path fill="#905a0b" d="M312 252h39v21c-7 10-14 15-20 15s-12-5-19-15z"/>
      <path fill="#f3f5ff" d="M301 200c7-19 38-24 53-10 14-2 25 8 24 21-1 14-11 20-27 21l-38 1c-14-3-18-13-12-33z"/>
      <path fill="#6fc100" d="M326 191h7v6h6v7h-6v7h-7v-7h-7v-7h7z"/>
    </g>

    <g>
      <path fill="#9bcb00" d="M209 227c0-24 22-38 49-38 29 0 48 16 48 41v39l-17 35h-67l-16-35z"/>
      <path fill="#6f4200" d="M232 213c10-5 38-5 49 3 9 7 11 18 7 34l-15 28h-34l-15-25c-3-17-1-32 8-40z"/>
      <path fill="#8a5605" d="M232 245c-8-4-12 6-6 17 3 6 8 8 12 5z"/>
      <path fill="#8a5605" d="M280 245c8-4 12 6 6 17-3 6-8 8-12 5z"/>
      <path fill="#8a5605" d="M237 236h38v44c-6 12-13 18-19 18s-13-6-19-18z"/>
      <path fill="#673800" d="M237 213c8-3 30-3 39 3 9 6 11 17 10 29-11-5-24-3-33-10-9-7-14-11-16-22z"/>
      <path fill="#f3f7ff" d="M195 316c10-30 30-42 61-42 32 0 51 12 61 42l8 76H187z"/>
      <path fill="url(#coat-shadow)" d="M207 306c12-21 29-32 49-32 21 0 38 11 50 32v86h-99z"/>
      <path fill="#84c3ef" d="m242 286 14 11 14-11 10 16-17 18h-14l-17-18z"/>
      <path fill="#2f7fbd" d="m249 320-8 72h31l-9-72z"/>
      <path fill="#dce6ff" d="m231 278 25 19-22 20-18-31z"/>
      <path fill="#dce6ff" d="m281 278-25 19 22 20 18-31z"/>
      <path fill="#d4dcfb" d="M195 330c0-12 9-21 21-21s21 9 21 21v62h-42z"/>
      <circle cx="228" cy="331" r="14" fill="#f4f7ff"/>
      <path fill="#6fc100" d="M225 323h6v6h6v6h-6v7h-6v-7h-7v-6h7z"/>
      <path fill="#bfcaf2" d="M296 330c0-12 9-21 21-21s21 9 21 21v62h-42z"/>
    </g>
  </g>
</svg>
