<svg xmlns="http://www.w3.org/2000/svg" viewBox="0 0 256 384" role="img" aria-labelledby="title desc">
  <title id="title">Phone approval chat illustration</title>
  <desc id="desc">A green hand holding a phone with a check mark and a chat bubble.</desc>

  <defs>
    <filter id="line-shadow" x="-10%" y="-10%" width="120%" height="120%">
      <feDropShadow dx="-2" dy="2" stdDeviation=".7" flood-color="#062f3e" flood-opacity=".5"/>
    </filter>
  </defs>

  <g stroke="#073849" stroke-linecap="round" stroke-linejoin="round">
    <path fill="#1fb36a" stroke-width="2" d="M73 205c-12 0-22 18-31 39-16 37-23 78-22 119v21h109c-1-42 6-77 19-105 5-11 11-22 19-30 16-17 5-37-18-31l-27 7-15-19z"/>
    <path fill="#1fb36a" stroke-width="2" d="M135 188h26c12 0 22 10 22 22v18h-52z"/>
    <path fill="#1fb36a" stroke-width="2" d="M135 219h37c12 0 20 8 20 19 0 12-8 19-20 19h-35z"/>
    <path fill="#1fb36a" stroke-width="2" d="M125 252h37c11 0 18 7 18 18 0 10-7 17-18 17h-36z"/>
    <path fill="#1fb36a" stroke-width="2" d="M117 283h31c10 0 16 7 16 16 0 10-7 16-17 16h-29z"/>
    <path fill="#1fb36a" stroke-width="2" d="M82 210c-18 18-31 53-36 88"/>
    <path fill="none" stroke-width="2" d="M103 275c-4-15-7-31-6-45"/>
    <path fill="none" stroke-width="2" d="M108 337l6 1"/>
  </g>

  <g filter="url(#line-shadow)">
    <path fill="#164d5f" d="M61 48c3-3 7-4 12-4l58-2c18-1 29 10 31 28l10 128c2 18-8 31-27 32l-59 3c-18 1-28-9-30-28L48 79c-2-14 2-25 13-31z"/>
    <path fill="#0e3848" d="M72 49c4-3 10-4 17-4l46-1c17-1 27 8 29 25l10 126c2 18-7 30-25 32l-47 4c-16 1-27-7-29-25L61 80c-1-14 2-25 11-31z"/>
    <path fill="#ffffff" d="M83 53c7-3 40-5 53-2 12 2 18 9 19 21l9 119c1 12-6 20-18 22-13 3-46 4-57 0-8-3-12-9-13-18L67 77c-1-12 4-20 16-24z"/>
  </g>

  <g>
    <circle cx="116" cy="110" r="27" fill="#1fb36a"/>
    <path fill="none" stroke="#ffffff" stroke-linecap="round" stroke-linejoin="round" stroke-width="4" d="m103 113 10 9 17-24"/>
  </g>

  <g stroke="#073849" stroke-linecap="round" stroke-linejoin="round">
    <path fill="#1fb36a" stroke-width="2" d="M86 182c-13 13-28 41-37 69l30 15c7-29 20-47 32-61 8-10 5-21-3-26-8-5-15-3-22 3z"/>
    <path fill="#1fb36a" stroke-width="2" d="M166 142c8-4 17 0 20 9 3 8-2 18-11 21l-8 3z"/>
  </g>

  <g stroke="#073849" stroke-linecap="round" stroke-linejoin="round">
    <path fill="#27c978" stroke-width="2" d="M181 20h45c9 0 16 7 16 16v11c0 9-7 16-16 16h-28l-24 13 6-18c-8-1-14-8-14-16v-6c0-9 7-16 15-16z"/>
    <circle cx="197" cy="41" r="2.5" fill="#ffffff" stroke="none"/>
    <circle cx="210" cy="41" r="2.5" fill="#ffffff" stroke="none"/>
    <circle cx="224" cy="41" r="2.5" fill="#ffffff" stroke="none"/>
  </g>
</svg>
