<svg xmlns="http://www.w3.org/2000/svg" viewBox="0 0 32 32" role="img" aria-labelledby="title desc">
  <title id="title">WhatsApp</title>
  <desc id="desc">WhatsApp logo icon.</desc>
  <circle cx="16" cy="16" r="13" fill="#25d366"/>
  <path fill="#ffffff" d="M9.6 24.2 11 19.6a8 8 0 1 1 3 3zm4.6-3.4.3.2a6.1 6.1 0 1 0-2.3-2.3l.2.4-.8 2.5zm5.2-3.2c-.3-.2-1.6-.8-1.9-.9s-.4-.1-.6.2-.7.9-.9 1.1-.3.2-.6.1a5.1 5.1 0 0 1-1.5-.9 5.6 5.6 0 0 1-1-1.3c-.1-.3 0-.4.1-.5l.4-.5c.1-.2.2-.3.3-.5a.5.5 0 0 0 0-.5c-.1-.2-.6-1.5-.8-2s-.4-.4-.6-.4h-.5a1 1 0 0 0-.7.3 2.7 2.7 0 0 0-.8 2 4.7 4.7 0 0 0 1 2.5 10.6 10.6 0 0 0 4 3.6 13.5 13.5 0 0 0 1.3.5 3 3 0 0 0 1.5.1 2.4 2.4 0 0 0 1.6-1.1 2 2 0 0 0 .1-1.1c-.1-.1-.3-.2-.6-.3z"/>
</svg>
